<svg xmlns="http://www.w3.org/2000/svg" xmlns:xlink="http://www.w3.org/1999/xlink" id="Layer_1" width="48" height="48" x="0" y="0" enable-background="new 0 0 48 48" version="1.1" viewBox="0 0 48 48" xml:space="preserve"><g><polygon fill="#FFF" points="12 7 28 7 36 14 36 41 12 41"/><rect width="2" height="36" x="11" y="6" fill="#333"/><rect width="17" height="2" x="11" y="6" fill="#333"/><rect width="2" height="28" x="35" y="14" fill="#333"/><rect width="26" height="2" x="11" y="40" fill="#333"/><polygon fill="#333" points="28 6 37 14 37 16 35 15 27 8"/><path fill="#333" d="M25,8c2,0,3,4,2,8c0,0,8-3.123,8,1c0,1,1-2,1-2l-8-8C28,7,24.441,8,25,8z"/></g></svg>